<svg width="120" height="120" viewBox="0 0 120 120" fill="none" xmlns="http://www.w3.org/2000/svg">
<path d="M68.8889 6.66663H51.1111C46.2089 6.66663 42.2222 10.6533 42.2222 15.5555V26.6665H46.6666V17.7779C46.6666 15.328 48.6612 13.3334 51.1111 13.3334H68.8889C71.3388 13.3334 73.3334 15.328 73.3334 17.7779V26.6668H77.7778V15.5555C77.7778 10.6533 73.7911 6.66663 68.8889 6.66663Z" fill="#707487"/>
<path d="M46.6666 19.9999H42.2222V26.6664H46.6666V19.9999Z" fill="#5B5D6E"/>
<path d="M77.7779 19.9999H73.3335V26.6664H77.7779V19.9999Z" fill="#5B5D6E"/>
<path d="M113.333 113.333H6.66656C2.98477 113.333 0 110.349 0 106.667V31.1111C0 27.4291 2.98477 24.4446 6.66656 24.4446H113.333C117.015 24.4446 120 27.4293 120 31.1111V106.667C120 110.348 117.015 113.333 113.333 113.333Z" fill="#FF5050"/>
<path d="M60.0001 97.7778C77.1823 97.7778 91.1113 83.8488 91.1113 66.6666C91.1113 49.4844 77.1823 35.5554 60.0001 35.5554C42.8179 35.5554 28.8889 49.4844 28.8889 66.6666C28.8889 83.8488 42.8179 97.7778 60.0001 97.7778Z" fill="#E4EAF8"/>
<path d="M60 93.3333C74.7276 93.3333 86.6667 81.3942 86.6667 66.6666C86.6667 51.939 74.7276 39.9999 60 39.9999C45.2723 39.9999 33.3333 51.939 33.3333 66.6666C33.3333 81.3942 45.2723 93.3333 60 93.3333Z" fill="white"/>
<path d="M73.3332 62.2221H64.4443V53.3332C64.4443 52.106 63.4493 51.1111 62.2222 51.1111H57.7777C56.5505 51.1111 55.5556 52.106 55.5556 53.3332V62.2221H46.6667C45.4395 62.2221 44.4446 63.217 44.4446 64.4442V68.8887C44.4446 70.1158 45.4395 71.1108 46.6667 71.1108H55.5556V79.9997C55.5556 81.2269 56.5505 82.2218 57.7777 82.2218H62.2222C63.4493 82.2218 64.4443 81.2269 64.4443 79.9997V71.1108H73.3332C74.5604 71.1108 75.5553 70.1158 75.5553 68.8887V64.4442C75.5553 63.217 74.5604 62.2221 73.3332 62.2221Z" fill="#FF5050"/>
<path d="M113.333 106.667H6.66656C2.98477 106.667 0 103.682 0 100V106.667C0 110.349 2.98477 113.333 6.66656 113.333H113.333C117.015 113.333 120 110.348 120 106.667V100C120 103.682 117.015 106.667 113.333 106.667Z" fill="#C84146"/>
</svg>
