<svg width="120" height="120" viewBox="0 0 120 120" fill="none" xmlns="http://www.w3.org/2000/svg">
<path d="M60.0001 120C81.9891 113.793 97.9808 97.2415 101.979 88.9655C109.036 74.3573 112.94 36.0309 113.793 26.8378C105.94 21.6476 99.7526 14.0077 96.2312 4.95328C86.2285 1.85391 73.6653 0 60.0001 0C46.3348 0 33.7712 1.85391 23.769 4.95305C20.2477 14.0077 14.0598 21.6473 6.20703 26.8376C7.05969 36.0307 10.9644 74.3573 18.0214 88.9655C22.0194 97.2415 38.011 113.793 60.0001 120Z" fill="#E4EAF8"/>
<path d="M23.769 4.95305C20.2475 14.0077 14.0598 21.6473 6.20703 26.8376C7.05969 36.0307 10.9641 74.3573 18.0214 88.9655C22.0194 97.2415 38.011 113.793 60.0001 120V0C46.3348 0 33.7712 1.85391 23.769 4.95305Z" fill="#D5DCED"/>
<path d="M60.0001 8.27576C50.0059 8.27576 40.2184 9.34521 31.6956 11.3683L29.8525 11.8059L28.9794 13.4873C25.8245 19.5623 21.6346 24.9028 16.5266 29.3604L14.9033 30.7772L15.1332 32.9196C16.138 42.2815 19.8531 73.7313 25.4736 85.3654C28.2857 91.1864 40.8976 104.649 58.6269 110.887L60.0004 111.37L61.3738 110.887C79.1033 104.649 91.7153 91.1866 94.5273 85.3652C100.148 73.7308 103.863 42.281 104.867 32.9196L105.097 30.7772L103.474 29.3604C98.3661 24.9028 94.1762 19.5623 91.0213 13.4873L90.1482 11.8059L88.3051 11.3683C79.7818 9.34521 69.9943 8.27576 60.0001 8.27576Z" fill="#D5DCED"/>
<path d="M31.6956 11.3683L29.8525 11.8059L28.9794 13.4873C25.8245 19.5623 21.6346 24.9028 16.5266 29.3604L14.9033 30.7774L15.1332 32.9198C16.138 42.2817 19.8531 73.7315 25.4736 85.3657C28.2857 91.1866 40.8976 104.649 58.6269 110.887L60.0004 111.371V8.27576C50.0059 8.27576 40.2184 9.34521 31.6956 11.3683Z" fill="#AFB9D2"/>
<path d="M60 12.4139C69.6939 12.4139 79.1997 13.46 87.3485 15.3945C90.7371 21.9193 95.2678 27.6914 100.753 32.4781C98.5563 52.943 94.8478 75.1885 90.8011 83.5655C88.5096 88.3088 76.6659 101.12 60 106.984C43.334 101.12 31.4904 88.3088 29.1991 83.5657C25.1521 75.1887 21.4436 52.9432 19.2471 32.4783C24.7321 27.6914 29.2626 21.9197 32.6514 15.3947C40.8002 13.46 50.306 12.4139 60 12.4139Z" fill="#00C3FF"/>
<path d="M32.6512 15.3945C29.2626 21.9193 24.7319 27.6914 19.2468 32.4781C21.4434 52.9432 25.1519 75.1885 29.1989 83.5655C31.4903 88.3085 43.3338 101.12 59.9997 106.984L60.0002 12.4139C50.3062 12.4139 40.8004 13.46 32.6512 15.3945Z" fill="#00AAF0"/>
</svg>
