<svg width="120" height="120" viewBox="0 0 120 120" fill="none" xmlns="http://www.w3.org/2000/svg">
<g clip-path="url(#clip0)">
<path d="M111.867 15.0005C110.21 15.0005 108.717 15.7142 107.661 16.8581C106.606 15.7144 105.112 15.0005 103.456 15.0005C100.258 15.0005 97.6664 17.659 97.6664 20.9386C97.6664 25.5324 107.661 33.1739 107.661 33.1739C107.661 33.1739 117.656 25.5324 117.656 20.9386C117.656 17.659 115.064 15.0005 111.867 15.0005Z" fill="#FE90C5"/>
<path d="M16.5443 2.34424C14.8877 2.34424 13.3941 3.05791 12.3387 4.20189C11.2835 3.05814 9.78961 2.34424 8.13305 2.34424C4.9357 2.34424 2.34375 5.00275 2.34375 8.28236C2.34375 12.8761 12.3387 20.5177 12.3387 20.5177C12.3387 20.5177 22.3336 12.8761 22.3336 8.28236C22.3336 5.00275 19.7416 2.34424 16.5443 2.34424Z" fill="#FE90C5"/>
<path d="M91.2593 117.439L117.656 91.0427L105.068 78.4542L105.082 68.0053C105.092 61.3375 103.113 54.8182 99.3998 49.2801L89.0838 33.8962C86.8945 30.6314 82.443 29.8094 79.2309 32.0845C76.2105 34.2236 75.4654 38.4032 77.3843 41.5685L81.3272 48.0726C81.9447 49.0912 80.595 50.1499 79.7529 49.3075L50.7309 20.2853C48.0511 17.6055 43.6624 17.4717 40.9652 20.1342C38.3751 22.6907 38.2622 26.7902 40.6122 29.4902L36.3794 25.2574C33.7376 22.6155 29.4733 22.585 26.794 25.1657C24.0312 27.8271 24.1151 32.3503 26.8275 35.0629L30.9333 39.1687C28.2335 36.8186 24.1338 36.9316 21.5772 39.5217C18.9147 42.2191 19.0486 46.6075 21.7284 49.2874L26.328 53.887C23.6395 51.5468 19.5628 51.6489 17.0041 54.2076C14.3313 56.8802 14.3313 61.2136 17.0041 63.8864L39.236 86.1182L48.1558 95.0381C54.4568 101.339 63.0061 104.873 71.9168 104.86L78.6701 104.851L91.2593 117.439Z" fill="#FFD4AC"/>
<path d="M21.3209 117.655L31.6256 107.35L39.1376 107.361C43.9313 107.368 48.618 105.945 52.5994 103.276L63.6593 95.8593C65.9988 94.2904 66.5934 91.1059 64.9779 88.7985C63.4587 86.6289 60.5168 86.0097 58.252 87.3827L53.4715 90.2807C52.7386 90.7248 51.9771 89.7541 52.583 89.1482L68.407 73.3241C70.3284 71.4027 70.3284 68.2874 68.407 66.366C66.4856 64.4446 63.3703 64.4446 61.4489 66.366L50.3941 77.4208L53.8528 73.9867L64.9076 62.932C66.829 61.0106 66.829 57.8952 64.9076 55.9738C62.9862 54.0524 59.8709 54.0524 57.9495 55.9738L46.8947 67.0286L43.4606 70.4873L54.5154 59.4325C56.4368 57.5111 56.4368 54.3958 54.5154 52.4744C52.594 50.553 49.4787 50.553 47.5573 52.4744L36.5025 63.5291L36.5147 63.5413L39.409 60.647C41.3304 58.7256 41.3304 55.6103 39.409 53.6889C37.4876 51.7675 34.3723 51.7675 32.4509 53.6889L26.1155 60.0229L31.3341 54.8043L19.7027 66.4356C15.173 70.9654 12.6321 77.1119 12.6413 83.5178L12.6483 88.3729L2.34375 98.6777L21.3209 117.655Z" fill="#FFCC9C"/>
<path d="M80.3281 103.194C79.8884 102.754 79.2924 102.507 78.6708 102.507C78.6697 102.507 78.6685 102.507 78.6676 102.507L71.9141 102.517C71.8993 102.517 71.8845 102.517 71.8698 102.517C68.1418 102.517 64.4073 101.831 60.912 100.523L64.9646 97.8056C66.6235 96.6933 67.7389 94.9994 68.1057 93.0361C68.4723 91.0725 68.0434 89.0901 66.8977 87.4537C65.4732 85.4193 63.1791 84.315 60.8433 84.315C60.8054 84.315 60.7674 84.3152 60.7292 84.3159L70.0641 74.981C72.8961 72.1488 72.8961 67.5405 70.0641 64.7083C69.3751 64.0193 68.5719 63.4861 67.6972 63.1256C68.3455 62.0236 68.6921 60.7647 68.6921 59.4525C68.6921 57.5123 67.9365 55.688 66.5647 54.3159C65.1926 52.9439 63.3685 52.1883 61.4281 52.1883C60.1158 52.1883 58.8573 52.5351 57.755 53.1834C57.3945 52.3087 56.8613 51.5055 56.1723 50.8162C54.8002 49.4442 52.9761 48.6886 51.0357 48.6886C49.0953 48.6886 47.2712 49.4442 45.8991 50.8162L42.5473 54.168C42.1908 53.3826 41.6937 52.6589 41.0656 52.0305C39.6936 50.6585 37.8694 49.9031 35.9291 49.9031C33.9887 49.9031 32.1645 50.6587 30.7925 52.0305L29.3068 53.5162L23.2667 47.5101C21.5122 45.7556 21.5122 42.9007 23.2667 41.1462C24.9104 39.5025 27.5194 39.3989 29.285 40.8344L35.1345 46.6842C35.5923 47.1419 36.192 47.3707 36.7918 47.3707C37.3916 47.3707 37.9916 47.1417 38.4491 46.6842C39.3643 45.769 39.3643 44.2849 38.4491 43.3697L28.3578 33.2784C26.6033 31.5237 26.6033 28.6687 28.3578 26.9142C30.1123 25.1594 32.9675 25.1597 34.722 26.9142L52.4026 44.6287C52.8603 45.0865 53.4601 45.3152 54.0598 45.3152C54.6596 45.3152 55.2596 45.0862 55.7171 44.6287C56.6323 43.7135 56.6323 42.2294 55.7171 41.3142L42.2783 27.8412C40.8427 26.0754 40.9466 23.4665 42.59 21.8231C44.3448 20.0686 47.1999 20.0686 48.9542 21.8231L53.878 26.7471C54.7934 27.6626 56.2775 27.6626 57.1925 26.7471C58.1077 25.8319 58.108 24.3478 57.1925 23.4326L52.2687 18.5086C48.6863 14.9264 42.8576 14.9266 39.2755 18.5086C38.0916 19.6924 37.3018 21.1221 36.9003 22.6345C35.3485 21.5147 33.4913 20.9088 31.5399 20.9088C29.0858 20.9088 26.7786 21.8646 25.0433 23.5997C21.8187 26.8242 21.4986 31.8682 24.079 35.4565C22.5664 35.8577 21.1362 36.6478 19.9522 37.8319C16.5715 41.2127 16.3831 46.5933 19.3833 50.1991C17.9042 50.6076 16.5076 51.3897 15.3472 52.5501C11.7652 56.1323 11.7652 61.961 15.3472 65.5434L16.3932 66.5894C12.4381 71.3383 10.2887 77.2636 10.2976 83.5207L10.3032 87.4029L0.686548 97.0202C-0.228687 97.9354 -0.228687 99.4195 0.686548 100.335C1.14428 100.792 1.74405 101.021 2.34381 101.021C2.94358 101.021 3.54358 100.792 4.00108 100.335L14.3056 90.0302C14.746 89.5898 14.993 88.9922 14.9921 88.3694L14.9851 83.5144C14.9766 77.6892 17.2409 72.2121 21.3601 68.0929L32.9912 56.4616C32.9912 56.4616 32.9912 56.4614 32.9914 56.4614L34.107 55.3458C34.5936 54.859 35.2405 54.5911 35.9288 54.5911C36.6172 54.5911 37.2641 54.859 37.7506 55.3458C38.2374 55.8323 38.5053 56.4792 38.5053 57.1676C38.5053 57.7584 38.3065 58.3183 37.9423 58.773L34.8441 61.8712C33.9289 62.7865 33.9289 64.2705 34.8441 65.186C34.8462 65.1881 34.8486 65.1898 34.8505 65.1919C34.8526 65.194 34.8542 65.1961 34.8563 65.1982C35.3141 65.6557 35.9138 65.8847 36.5136 65.8847C37.1133 65.8847 37.7133 65.6557 38.1708 65.1982L49.2132 54.1312C49.6998 53.6444 50.3466 53.3765 51.035 53.3765C51.7233 53.3765 52.3702 53.6447 52.8568 54.1312C53.7919 55.0664 53.8555 56.5472 53.0492 57.5578L41.802 68.8296C40.8868 69.7448 40.8868 71.2289 41.802 72.1444C42.2598 72.6019 42.8595 72.8308 43.4593 72.8308C44.0591 72.8308 44.659 72.6019 45.1166 72.1444L59.6054 57.6309C60.0919 57.1441 60.7388 56.8762 61.4272 56.8762C62.1155 56.8762 62.7624 57.1444 63.249 57.6309C64.2535 58.6354 64.2535 60.27 63.249 61.2745L48.7358 75.7631C47.8205 76.6783 47.8203 78.1624 48.7358 79.0779C49.6512 79.9929 51.1353 79.9931 52.0503 79.0779L63.3223 67.8307C64.3327 67.0242 65.8135 67.0877 66.7487 68.0233C67.7532 69.0276 67.7532 70.6624 66.7487 71.6667L50.9248 87.491C49.8101 88.6055 49.707 90.3145 50.6799 91.5548C51.6526 92.7951 53.3373 93.1024 54.6854 92.2851L59.4659 89.3871C60.6711 88.6561 62.2484 88.9882 63.0568 90.1429C63.4742 90.739 63.6303 91.4608 63.4967 92.1761C63.3631 92.891 62.9569 93.5079 62.353 93.9129L51.293 101.329C47.6942 103.743 43.5033 105.018 39.1707 105.018C39.1606 105.018 39.1501 105.018 39.14 105.018L31.628 105.007C31.6269 105.007 31.6259 105.007 31.6248 105.007C31.0032 105.007 30.4069 105.254 29.9675 105.693L19.6627 115.998C18.7475 116.913 18.7475 118.397 19.6627 119.313C20.1205 119.77 20.7202 119.999 21.32 119.999C21.9198 119.999 22.5198 119.77 22.9773 119.313L32.5941 109.696L39.1334 109.705C39.1458 109.705 39.1578 109.705 39.1705 109.705C44.4357 109.705 49.5301 108.156 53.9035 105.223L56.2719 103.635C61.1115 105.97 66.496 107.205 71.8686 107.205C71.8852 107.205 71.9028 107.205 71.9197 107.205L77.7003 107.197L89.6009 119.097C90.0587 119.555 90.6584 119.784 91.2582 119.784C91.858 119.784 92.458 119.555 92.9155 119.097C93.8307 118.182 93.8307 116.698 92.9155 115.783L80.3281 103.194ZM18.6619 55.8651C20.3056 54.2215 22.9147 54.1179 24.6802 55.5534L25.9754 56.8486L24.4583 58.3657C24.458 58.3659 24.458 58.3659 24.4578 58.3662L19.6283 63.1957L18.6619 62.2294C16.9074 60.4746 16.9074 57.6197 18.6619 55.8651Z" fill="black"/>
<path d="M117.656 88.6997C117.04 88.6997 116.435 88.9481 115.999 89.3864C115.563 89.8224 115.312 90.4247 115.312 91.0435C115.312 91.6599 115.563 92.2646 115.999 92.7003C116.435 93.1362 117.04 93.3872 117.656 93.3872C118.273 93.3872 118.877 93.1364 119.313 92.7003C119.749 92.262 120 91.6599 120 91.0435C120 90.4245 119.749 89.8224 119.313 89.3864C118.877 88.9481 118.273 88.6997 117.656 88.6997Z" fill="black"/>
<path d="M107.413 77.4848L107.426 68.0086C107.436 60.8489 105.334 53.9214 101.347 47.9749L91.0305 32.591C89.6215 30.4896 87.4758 29.0765 84.9888 28.612C82.5016 28.1475 79.9908 28.691 77.9184 30.1422C74.5228 32.52 73.1726 36.81 74.3733 40.6129L68.2479 34.4873C67.3327 33.5723 65.8486 33.5723 64.9331 34.4873C64.0179 35.4025 64.0179 36.8866 64.9331 37.8021L78.0919 50.9608C79.3092 52.1782 81.1765 52.2909 82.5312 51.228C83.8859 50.1654 84.2215 48.3253 83.3288 46.8527L79.2975 40.203C78.0319 38.1152 78.607 35.3826 80.607 33.9822C81.6391 33.2596 82.8905 32.9889 84.1282 33.2203C85.3669 33.4516 86.4354 34.1554 87.1371 35.2019L97.4531 50.5858C100.92 55.7557 102.747 61.7779 102.739 68.002L102.724 78.4509C102.723 79.0736 102.97 79.6713 103.41 80.1117L109.696 86.3979C110.154 86.8554 110.754 87.0843 111.354 87.0843C111.953 87.0843 112.553 86.8554 113.011 86.3979C113.926 85.4826 113.926 83.9986 113.011 83.0831L107.413 77.4848Z" fill="black"/>
<path d="M61.0828 32.9794C61.6992 32.9794 62.3015 32.7286 62.7375 32.2927C63.1757 31.8567 63.4265 31.252 63.4265 30.6356C63.4265 30.0192 63.1757 29.4145 62.7375 28.9786C62.3039 28.5427 61.6992 28.2919 61.0828 28.2919C60.464 28.2919 59.8617 28.5427 59.4234 28.9786C58.9875 29.4145 58.7367 30.0192 58.7367 30.6356C58.7367 31.2544 58.9875 31.8567 59.4234 32.2927C59.8617 32.7286 60.464 32.9794 61.0828 32.9794Z" fill="black"/>
<path d="M84.4887 65.3494C85.4039 64.4342 85.4039 62.9501 84.4887 62.0346C83.5734 61.1196 82.0894 61.1196 81.1739 62.0346L80.1516 63.057C75.7748 67.4339 75.7748 74.5557 80.1516 78.9324C80.6093 79.3899 81.2091 79.6189 81.8088 79.6189C82.4086 79.6189 83.0086 79.3899 83.4661 78.9324C84.3813 78.0171 84.3816 76.5331 83.4661 75.6176C80.917 73.0685 80.917 68.9206 83.4661 66.3715L84.4887 65.3494Z" fill="black"/>
<path d="M111.867 12.6567C110.377 12.6567 108.921 13.0796 107.661 13.8528C106.402 13.0796 104.946 12.6567 103.456 12.6567C98.9712 12.6567 95.3226 16.3721 95.3226 20.9384C95.3226 23.5263 97.1833 26.6344 101.011 30.4406C103.588 33.0033 106.131 34.9538 106.238 35.0356C106.658 35.3569 107.16 35.5174 107.661 35.5174C108.163 35.5174 108.665 35.3569 109.085 35.0356C109.192 34.9538 111.734 33.0031 114.311 30.4406C118.139 26.6346 120 23.5263 120 20.9384C120 16.3718 116.351 12.6567 111.867 12.6567ZM107.661 30.1753C103.744 26.9222 100.01 22.7714 100.01 20.9384C100.01 18.9565 101.556 17.3442 103.456 17.3442C104.401 17.3442 105.282 17.7359 105.939 18.4474C106.383 18.9284 107.007 19.2019 107.661 19.2019C108.316 19.2019 108.94 18.9284 109.384 18.4474C110.04 17.7361 110.922 17.3442 111.867 17.3442C113.767 17.3442 115.312 18.9565 115.312 20.9384C115.312 22.7667 111.578 26.9187 107.661 30.1753Z" fill="black"/>
<path d="M10.9151 22.3796C11.3351 22.7009 11.8369 22.8614 12.3387 22.8614C12.8405 22.8614 13.342 22.7009 13.7623 22.3796C13.8694 22.2978 16.4116 20.3471 18.9888 17.7846C22.8166 13.9784 24.6773 10.8703 24.6773 8.28237C24.6773 3.71581 21.0288 0.000732433 16.5443 0.000732433C15.0544 0.000732433 13.598 0.423545 12.3387 1.19675C11.0794 0.423545 9.62297 0.000732433 8.13305 0.000732433C3.64852 0.000498058 0 3.71558 0 8.28214C0 10.8701 1.8607 13.9782 5.68852 17.7844C8.2657 20.3471 10.8082 22.2978 10.9151 22.3796ZM8.13305 4.688C9.07805 4.688 9.95977 5.07964 10.616 5.7912C11.0599 6.27214 11.6843 6.54565 12.3387 6.54565C12.993 6.54565 13.6177 6.27214 14.0613 5.7912C14.7176 5.07987 15.5993 4.688 16.5443 4.688C18.4441 4.688 19.9898 6.30026 19.9898 8.28214C19.9898 10.1103 16.2551 14.2625 12.338 17.5191C8.42086 14.266 4.6875 10.1154 4.6875 8.28214C4.6875 6.30026 6.2332 4.688 8.13305 4.688Z" fill="black"/>
</g>
<defs>
<clipPath id="clip0">
<rect width="120" height="120" fill="white"/>
</clipPath>
</defs>
</svg>
