<?xml version="1.0" encoding="iso-8859-1"?>
<!-- Generator: Adobe Illustrator 19.0.0, SVG Export Plug-In . SVG Version: 6.00 Build 0)  -->
<svg version="1.1" id="Layer_1" xmlns="http://www.w3.org/2000/svg" xmlns:xlink="http://www.w3.org/1999/xlink" x="0px" y="0px"
	 viewBox="0 0 512 512" style="enable-background:new 0 0 512 512;" xml:space="preserve">
<path style="fill:#5AC2AD;" d="M280.437,219.605H18.287c-10.099,0-18.286-8.187-18.286-18.286v-44.852
	c0-75.621,61.523-137.143,137.144-137.143h24.436c75.621,0,137.143,61.523,137.143,137.143v44.852
	C298.723,211.418,290.536,219.605,280.437,219.605z M36.572,183.033h225.579v-26.567c0-55.456-45.117-100.571-100.571-100.571
	h-24.436c-55.456,0-100.572,45.117-100.572,100.571V183.033z"/>
<path style="fill:#1AB899;" d="M161.58,19.323h-12.218v36.571h12.218c55.454,0,100.571,45.117,100.571,100.571v26.567h-112.79
	v36.571h131.075c10.099,0,18.286-8.187,18.286-18.286v-44.852C298.723,80.846,237.201,19.323,161.58,19.323z"/>
<path style="fill:#4CDBC4;" d="M257.508,492.677H41.217c-9.506,0-17.426-7.284-18.221-16.756L0.065,202.849
	c-0.896-10.656,7.522-19.816,18.221-19.816h262.151c10.693,0,19.118,9.154,18.221,19.816l-22.929,273.072
	C274.934,485.393,267.014,492.677,257.508,492.677z"/>
<g>
	<path style="fill:#5AC2AD;" d="M280.437,183.033H149.362v309.643h108.146c9.506,0,17.426-7.284,18.221-16.756l22.929-273.072
		C299.554,192.187,291.129,183.033,280.437,183.033z"/>
	<polygon style="fill:#5AC2AD;" points="6.795,282.996 291.929,282.996 295,246.425 3.724,246.425 	"/>
</g>
<polygon style="fill:#1AB899;" points="295,246.425 149.362,246.425 149.362,282.996 291.929,282.996 "/>
<path style="fill:#FFCE3E;" d="M429.095,386.17c-10.099,0-18.286-8.187-18.286-18.286V201.319c0-10.099,8.187-18.286,18.286-18.286
	c10.099,0,18.286,8.187,18.286,18.286v166.565C447.38,377.983,439.193,386.17,429.095,386.17z"/>
<path style="fill:#F59D00;" d="M429.095,183.033V386.17c10.099,0,18.286-8.187,18.286-18.286V201.319
	C447.38,191.22,439.193,183.033,429.095,183.033z"/>
<g>
	<path style="fill:#FEE856;" d="M457.143,219.605h-56.096c-30.248,0-54.857-24.609-54.857-54.857V40.874
		c0-10.099,8.187-18.286,18.286-18.286h129.238c10.099,0,18.286,8.187,18.286,18.286v123.873
		C512,194.996,487.391,219.605,457.143,219.605z"/>
	<path style="fill:#FEE856;" d="M471.991,492.677h-85.792c-10.099,0-18.286-8.187-18.286-18.286v-67.609
		c0-31.531,25.652-57.183,57.183-57.183h7.998c31.529,0,57.182,25.652,57.182,57.183v67.609
		C490.276,484.49,482.089,492.677,471.991,492.677z"/>
</g>
<g>
	<path style="fill:#FFCE3E;" d="M493.714,22.589h-64.619v197.016h28.048c30.248,0,54.857-24.609,54.857-54.857V40.874
		C512,30.776,503.813,22.589,493.714,22.589z"/>
	<path style="fill:#FFCE3E;" d="M433.093,349.599h-3.998v143.078h42.896c10.099,0,18.286-8.187,18.286-18.286v-67.609
		C490.276,375.251,464.624,349.599,433.093,349.599z"/>
</g>
<g>
</g>
<g>
</g>
<g>
</g>
<g>
</g>
<g>
</g>
<g>
</g>
<g>
</g>
<g>
</g>
<g>
</g>
<g>
</g>
<g>
</g>
<g>
</g>
<g>
</g>
<g>
</g>
<g>
</g>
</svg>
